<svg width="92" height="24" viewBox="0 0 92 24" fill="none" xmlns="http://www.w3.org/2000/svg">
<path d="M5.58734 9.96745L7.53049 10.7896C7.763 10.3245 8.00382 9.87611 8.25294 9.4443C8.50206 9.01249 8.77609 8.58068 9.07504 8.14887L7.67996 7.87484L5.58734 9.96745ZM9.12486 12.0352L11.9648 14.8502C12.6624 14.5845 13.4097 14.1776 14.2069 13.6295C15.0041 13.0815 15.7515 12.4587 16.449 11.7611C17.6116 10.5986 18.5209 9.30728 19.1769 7.88729C19.8329 6.4673 20.1194 5.15942 20.0364 3.96364C18.8406 3.8806 17.5285 4.16709 16.1003 4.8231C14.672 5.47912 13.3765 6.38841 12.214 7.55098C11.5164 8.24852 10.8936 8.99588 10.3456 9.79307C9.79749 10.5903 9.39059 11.3376 9.12486 12.0352ZM13.5592 10.4159C13.1772 10.0339 12.9862 9.56471 12.9862 9.00834C12.9862 8.45197 13.1772 7.98279 13.5592 7.6008C13.9412 7.21882 14.4145 7.02783 14.9792 7.02783C15.5439 7.02783 16.0172 7.21882 16.3992 7.6008C16.7812 7.98279 16.9722 8.45197 16.9722 9.00834C16.9722 9.56471 16.7812 10.0339 16.3992 10.4159C16.0172 10.7979 15.5439 10.9888 14.9792 10.9888C14.4145 10.9888 13.9412 10.7979 13.5592 10.4159ZM14.0325 18.4127L16.1252 16.32L15.8511 14.925C15.4193 15.2239 14.9875 15.4938 14.5557 15.7346C14.1239 15.9754 13.6755 16.2121 13.2104 16.4446L14.0325 18.4127ZM21.83 2.14505C22.1456 4.15463 21.9504 6.11023 21.2446 8.01185C20.5388 9.91348 19.3222 11.7279 17.595 13.4551L18.0932 15.9214C18.1597 16.2536 18.143 16.5775 18.0434 16.893C17.9437 17.2086 17.7777 17.4826 17.5452 17.7151L13.3599 21.9004L11.2673 16.9927L7.00733 12.7327L2.09965 10.6401L6.25997 6.45485C6.49248 6.22233 6.77067 6.05625 7.09453 5.9566C7.41838 5.85696 7.74639 5.84035 8.07855 5.90678L10.5449 6.40502C12.2721 4.67778 14.0824 3.45709 15.9757 2.74294C17.869 2.0288 19.8205 1.8295 21.83 2.14505ZM3.86841 15.8965C4.44969 15.3153 5.15969 15.0205 5.99839 15.0122C6.8371 15.0039 7.5471 15.2903 8.12838 15.8716C8.70966 16.4529 8.99615 17.1629 8.98785 18.0016C8.97954 18.8403 8.68475 19.5503 8.10347 20.1316C7.68826 20.5468 6.99488 20.9039 6.02331 21.2028C5.05173 21.5018 3.71063 21.7675 2 22C2.23251 20.2894 2.49824 18.9483 2.79719 17.9767C3.09613 17.0051 3.45321 16.3117 3.86841 15.8965ZM5.2884 17.2916C5.12232 17.4577 4.95624 17.7608 4.79016 18.2009C4.62408 18.641 4.50782 19.0853 4.44139 19.5337C4.8898 19.4673 5.33407 19.3552 5.77418 19.1974C6.2143 19.0396 6.5174 18.8777 6.68348 18.7116C6.88277 18.5123 6.99073 18.2715 7.00733 17.9892C7.02394 17.7068 6.9326 17.466 6.7333 17.2667C6.534 17.0674 6.29319 16.9719 6.01085 16.9802C5.72851 16.9885 5.48769 17.0923 5.2884 17.2916Z" fill="black"/>
<path d="M37.8535 15.5039C37.8535 15.1133 37.7884 14.765 37.6582 14.459C37.528 14.153 37.3132 13.8796 37.0137 13.6387C36.7207 13.3913 36.3236 13.1634 35.8223 12.9551C35.3275 12.7402 34.709 12.5286 33.9668 12.3203C33.2572 12.1185 32.6159 11.8971 32.043 11.6562C31.4701 11.4154 30.9785 11.1387 30.5684 10.8262C30.1647 10.5137 29.8555 10.1491 29.6406 9.73242C29.4258 9.30924 29.3184 8.81771 29.3184 8.25781C29.3184 7.71094 29.4355 7.21289 29.6699 6.76367C29.9043 6.31445 30.2331 5.92708 30.6562 5.60156C31.0859 5.27604 31.5905 5.02539 32.1699 4.84961C32.7559 4.67383 33.3971 4.58594 34.0938 4.58594C35.0898 4.58594 35.9492 4.77474 36.6719 5.15234C37.401 5.52995 37.9642 6.04102 38.3613 6.68555C38.765 7.32357 38.9668 8.03971 38.9668 8.83398H37.7656C37.7656 8.21549 37.6191 7.66536 37.3262 7.18359C37.0397 6.69531 36.623 6.31445 36.0762 6.04102C35.5358 5.76107 34.875 5.62109 34.0938 5.62109C33.3125 5.62109 32.6549 5.74154 32.1211 5.98242C31.5938 6.2168 31.1934 6.53255 30.9199 6.92969C30.653 7.32031 30.5195 7.75651 30.5195 8.23828C30.5195 8.57682 30.5846 8.88932 30.7148 9.17578C30.8451 9.45573 31.0566 9.7194 31.3496 9.9668C31.6491 10.2077 32.043 10.4355 32.5312 10.6504C33.0195 10.8587 33.6217 11.0573 34.3379 11.2461C35.0931 11.4544 35.7637 11.6855 36.3496 11.9395C36.9355 12.1934 37.4303 12.4863 37.834 12.8184C38.2376 13.1439 38.5436 13.5247 38.752 13.9609C38.9603 14.3971 39.0645 14.9049 39.0645 15.4844C39.0645 16.0638 38.9408 16.5846 38.6934 17.0469C38.4525 17.5026 38.1107 17.89 37.668 18.209C37.2318 18.528 36.7142 18.7721 36.1152 18.9414C35.5228 19.1107 34.875 19.1953 34.1719 19.1953C33.5404 19.1953 32.9121 19.1139 32.2871 18.9512C31.6621 18.7884 31.0892 18.5378 30.5684 18.1992C30.054 17.8542 29.6406 17.4115 29.3281 16.8711C29.0221 16.3307 28.8691 15.6862 28.8691 14.9375H30.0605C30.0605 15.5365 30.181 16.041 30.4219 16.4512C30.6628 16.8613 30.9818 17.1934 31.3789 17.4473C31.7826 17.7012 32.2253 17.8867 32.707 18.0039C33.1953 18.1146 33.6836 18.1699 34.1719 18.1699C34.9206 18.1699 35.5684 18.0592 36.1152 17.8379C36.6686 17.6165 37.0951 17.3073 37.3945 16.9102C37.7005 16.5065 37.8535 16.0378 37.8535 15.5039ZM47.4961 13.209H43.4434V12.1836H47.4961C48.3424 12.1836 49.0293 12.0469 49.5566 11.7734C50.0905 11.4935 50.4779 11.1159 50.7188 10.6406C50.9661 10.1654 51.0898 9.63151 51.0898 9.03906C51.0898 8.45964 50.9661 7.92578 50.7188 7.4375C50.4779 6.94922 50.0905 6.55859 49.5566 6.26562C49.0293 5.96615 48.3424 5.81641 47.4961 5.81641H43.8633V19H42.6621V4.78125H47.4961C48.5378 4.78125 49.4134 4.96029 50.123 5.31836C50.8392 5.67643 51.3796 6.17448 51.7441 6.8125C52.1087 7.45052 52.291 8.1862 52.291 9.01953C52.291 9.89193 52.1087 10.6439 51.7441 11.2754C51.3796 11.9004 50.8424 12.3789 50.1328 12.7109C49.4232 13.043 48.5443 13.209 47.4961 13.209ZM59.3066 5.63086L54.3848 19H53.1348L58.5059 4.78125H59.375L59.3066 5.63086ZM63.7793 19L58.8477 5.63086L58.7793 4.78125H59.6484L65.0293 19H63.7793ZM62.9004 13.9805V15.0156H55.3516V13.9805H62.9004ZM76.8789 14.5664H78.0801C77.9824 15.5234 77.7188 16.3503 77.2891 17.0469C76.8594 17.737 76.2734 18.2676 75.5312 18.6387C74.7891 19.0098 73.8939 19.1953 72.8457 19.1953C72.0384 19.1953 71.306 19.0423 70.6484 18.7363C69.9974 18.4303 69.4375 17.9974 68.9688 17.4375C68.5 16.8711 68.1387 16.194 67.8848 15.4062C67.6309 14.6185 67.5039 13.7428 67.5039 12.7793V11.002C67.5039 10.0384 67.6309 9.16602 67.8848 8.38477C68.1387 7.59701 68.5033 6.91992 68.9785 6.35352C69.4538 5.78711 70.0234 5.35091 70.6875 5.04492C71.3516 4.73893 72.1003 4.58594 72.9336 4.58594C73.9427 4.58594 74.8151 4.77148 75.5508 5.14258C76.2865 5.50716 76.8659 6.03451 77.2891 6.72461C77.7188 7.41471 77.9824 8.24805 78.0801 9.22461H76.8789C76.7878 8.45638 76.5859 7.80534 76.2734 7.27148C75.9609 6.73763 75.528 6.33073 74.9746 6.05078C74.4277 5.76432 73.7474 5.62109 72.9336 5.62109C72.2695 5.62109 71.6771 5.74805 71.1562 6.00195C70.6354 6.25586 70.1927 6.62044 69.8281 7.0957C69.4635 7.56445 69.1836 8.1276 68.9883 8.78516C68.7995 9.44271 68.7051 10.1751 68.7051 10.9824V12.7793C68.7051 13.5605 68.7962 14.2799 68.9785 14.9375C69.1608 15.5951 69.4277 16.1647 69.7793 16.6465C70.1374 17.1283 70.5736 17.5026 71.0879 17.7695C71.6022 18.0365 72.1882 18.1699 72.8457 18.1699C73.6855 18.1699 74.3854 18.0365 74.9453 17.7695C75.5117 17.4961 75.9512 17.0924 76.2637 16.5586C76.5762 16.0247 76.7812 15.3607 76.8789 14.5664ZM90.8477 17.9746V19H82.8496V17.9746H90.8477ZM83.2109 4.78125V19H82.0098V4.78125H83.2109ZM89.8516 11.1582V12.1836H82.8496V11.1582H89.8516ZM90.7988 4.78125V5.81641H82.8496V4.78125H90.7988Z" fill="black"/>
</svg>
